
        <svg xmlns="http://www.w3.org/2000/svg" xmlns:xlink="http://www.w3.org/1999/xlink" version="1.1" width="3086.402507049257" 
        height="1321.9583578536322" viewBox="0 0 3086.402507049257 1321.9583578536322">
			<rect fill="#ffffff" width="3086.402507049257" height="1321.9583578536322"/>
			<g transform="scale(4.32012535246285) translate(10, 10)">
				<defs id="SvgjsDefs2007"></defs><g id="SvgjsG2008" featureKey="rootContainer" transform="matrix(1,0,0,1,0,0)" fill="#1e90ff"><path xmlns="http://www.w3.org/2000/svg" fill-rule="evenodd" d="M5,65 L347,0 L689, 65 L347, 10 z M5,206 L347,286 L689,201 L347, 276 z"></path></g><g id="SvgjsG2009" featureKey="sloganFeature-0" transform="matrix(1.1974680016925208,0,0,1.1974680016925208,-0.4789872078144738,168.81519313183935)" fill="#000000"><path d="M0.4 20 l1.14 -5.6 l4.28 0 l-0.86 -4.28 l-0.68 3.44 l-2.58 0 l1.52 -7.56 l3.48 0 l2.2 10.92 l-5.3 0 l-0.62 3.08 l-2.58 0 z M6.96 20 l-0.46 -2.24 l2.58 0 l0.44 2.24 l-2.56 0 z M18.2745 20 l0 -2.52 l0.74 0 l0.38 -0.38 l0 -11.1 l2.52 0 l0 12.14 l-1.86 1.86 l-1.78 0 z M15.6545 20 l-1.86 -1.86 l0 -12.14 l2.52 0 l0 11.1 l0.38 0.38 l0.74 0 l0 2.52 l-1.78 0 z M29.249000000000002 20 l0 -10.64 l2.52 0 l0 10.64 l-2.52 0 z M26.589000000000002 8.52 l0 -2.52 l7.84 0 l0 2.52 l-7.84 0 z M43.6635 20 l0 -2.52 l0.8 0 l0.38 -0.38 l0 -8.2 l-0.38 -0.38 l-0.8 0 l0 -2.52 l1.84 0 l1.86 1.86 l0 10.28 l-1.86 1.86 l-1.84 0 z M40.963499999999996 20 l-1.86 -1.86 l0 -10.28 l1.86 -1.86 l1.84 0 l0 2.52 l-0.8 0 l-0.38 0.38 l0 8.2 l0.38 0.38 l0.8 0 l0 2.52 l-1.84 0 z M55.838 15.66 l-3.8 -9.66 l2.7 0 l2.1 5.3 l2.08 -5.3 l2.7 0 l-3.8 9.66 l-1.98 0 z M52.078 20 l0 -11.62 l2.52 6.42 l0 5.2 l-2.52 0 z M59.078 20 l0 -5.2 l2.52 -6.42 l0 11.62 l-2.52 0 z M65.89250000000001 20 l1.14 -5.6 l4.28 0 l-0.86 -4.28 l-0.68 3.44 l-2.58 0 l1.52 -7.56 l3.48 0 l2.2 10.92 l-5.3 0 l-0.62 3.08 l-2.58 0 z M72.4525 20 l-0.46 -2.24 l2.58 0 l0.44 2.24 l-2.56 0 z M81.947 20 l0 -10.64 l2.52 0 l0 10.64 l-2.52 0 z M79.287 8.52 l0 -2.52 l7.84 0 l0 2.52 l-7.84 0 z M91.8015 14.26 l0 -8.26 l2.52 0 l0 8.26 l-2.52 0 z M91.8015 20 l0 -4.9 l2.52 0 l0 4.9 l-2.52 0 z M95.1615 20 l0 -2.52 l3.5 0 l0 2.52 l-3.5 0 z M95.1615 14.26 l0 -2.52 l2.38 0 l0 2.52 l-2.38 0 z M95.1615 8.52 l0 -2.52 l3.5 0 l0 2.52 l-3.5 0 z M112.9905 20 l0 -5.2 l-3.18 -8.8 l2.68 0 l3.02 8.36 l0 5.64 l-2.52 0 z M116.0305 13.32 l-1.34 -3.7 l1.3 -3.62 l2.68 0 z M127.505 20 l0 -2.52 l0.8 0 l0.38 -0.38 l0 -8.2 l-0.38 -0.38 l-0.8 0 l0 -2.52 l1.84 0 l1.86 1.86 l0 10.28 l-1.86 1.86 l-1.84 0 z M124.80499999999999 20 l-1.86 -1.86 l0 -10.28 l1.86 -1.86 l1.84 0 l0 2.52 l-0.8 0 l-0.38 0.38 l0 8.2 l0.38 0.38 l0.8 0 l0 2.52 l-1.84 0 z M140.3595 20 l0 -2.52 l0.74 0 l0.38 -0.38 l0 -11.1 l2.52 0 l0 12.14 l-1.86 1.86 l-1.78 0 z M137.7395 20 l-1.86 -1.86 l0 -12.14 l2.52 0 l0 11.1 l0.38 0.38 l0.74 0 l0 2.52 l-1.78 0 z M154.374 20 l-1.36 -5.18 l-0.98 0 l0 -2.52 l1.58 0 l0.38 -0.38 l0 -3.02 l-0.38 -0.38 l-1.58 0 l0 -2.52 l2.62 0 l1.86 1.86 l0 5.1 l-1.08 1.1 l1.54 5.94 l-2.6 0 z M148.674 20 l0 -4.34 l2.52 0 l0 4.34 l-2.52 0 z M148.674 14.82 l0 -8.82 l2.52 0 l0 8.82 l-2.52 0 z M172.883 20 l0 -2.52 l0.8 0 l0.38 -0.38 l0 -8.2 l-0.38 -0.38 l-0.8 0 l0 -2.52 l1.84 0 l1.86 1.86 l0 10.28 l-1.86 1.86 l-1.84 0 z M170.183 20 l-1.86 -1.86 l0 -10.28 l1.86 -1.86 l1.84 0 l0 2.52 l-0.8 0 l-0.38 0.38 l0 8.2 l0.38 0.38 l0.8 0 l0 2.52 l-1.84 0 z M184.61749999999998 15.1 l0 -2.52 l1.58 0 l0.38 -0.38 l0 -3.3 l-0.38 -0.38 l-1.58 0 l0 -2.52 l2.62 0 l1.86 1.86 l0 5.38 l-1.86 1.86 l-2.62 0 z M181.2575 20 l0 -4.06 l2.52 0 l0 4.06 l-2.52 0 z M181.2575 15.1 l0 -9.1 l2.52 0 l0 9.1 l-2.52 0 z M193.772 14.26 l0 -8.26 l2.52 0 l0 8.26 l-2.52 0 z M193.772 20 l0 -4.9 l2.52 0 l0 4.9 l-2.52 0 z M197.13199999999998 20 l0 -2.52 l3.5 0 l0 2.52 l-3.5 0 z M197.13199999999998 14.26 l0 -2.52 l2.38 0 l0 2.52 l-2.38 0 z M197.13199999999998 8.52 l0 -2.52 l3.5 0 l0 2.52 l-3.5 0 z M211.0065 20 l-1.36 -5.18 l-0.98 0 l0 -2.52 l1.58 0 l0.38 -0.38 l0 -3.02 l-0.38 -0.38 l-1.58 0 l0 -2.52 l2.62 0 l1.86 1.86 l0 5.1 l-1.08 1.1 l1.54 5.94 l-2.6 0 z M205.3065 20 l0 -4.34 l2.52 0 l0 4.34 l-2.52 0 z M205.3065 14.82 l0 -8.82 l2.52 0 l0 8.82 l-2.52 0 z M217.68099999999998 20 l1.14 -5.6 l4.28 0 l-0.86 -4.28 l-0.68 3.44 l-2.58 0 l1.52 -7.56 l3.48 0 l2.2 10.92 l-5.3 0 l-0.62 3.08 l-2.58 0 z M224.24099999999999 20 l-0.46 -2.24 l2.58 0 l0.44 2.24 l-2.56 0 z M233.73549999999997 20 l0 -10.64 l2.52 0 l0 10.64 l-2.52 0 z M231.07549999999998 8.52 l0 -2.52 l7.84 0 l0 2.52 l-7.84 0 z M243.58999999999997 12.58 l0 -6.58 l2.52 0 l0 6.58 l-2.52 0 z M243.58999999999997 20 l0 -6.58 l2.52 0 l0 6.58 l-2.52 0 z M255.34449999999998 20 l0 -2.52 l0.8 0 l0.38 -0.38 l0 -8.2 l-0.38 -0.38 l-0.8 0 l0 -2.52 l1.84 0 l1.86 1.86 l0 10.28 l-1.86 1.86 l-1.84 0 z M252.64449999999997 20 l-1.86 -1.86 l0 -10.28 l1.86 -1.86 l1.84 0 l0 2.52 l-0.8 0 l-0.38 0.38 l0 8.2 l0.38 0.38 l0.8 0 l0 2.52 l-1.84 0 z M269.19899999999996 20 l-5.48 -14 l2.72 0 l2.92 7.48 l0 -7.48 l2.52 0 l0 14 l-2.68 0 z M263.75899999999996 20 l0 -11.6 l2.52 6.42 l0 5.18 l-2.52 0 z M278.4135 14.26 l-1.86 -1.86 l0 -4.54 l1.86 -1.86 l1.64 0 l0 2.52 l-0.6 0 l-0.38 0.38 l0 2.46 l0.38 0.38 l3.08 0 l1.86 1.86 l0 0.66 l-5.98 0 z M278.4135 20 l-1.86 -1.86 l0 -2.62 l2.52 0 l0 1.58 l0.38 0.38 l2.04 0 l0.38 -0.38 l0 -2 l2.52 0 l0 3.04 l-1.86 1.86 l-4.12 0 z M281.8735 10.48 l0 -1.58 l-0.38 -0.38 l-0.6 0 l0 -2.52 l1.64 0 l1.86 1.86 l0 2.62 l-2.52 0 z M290.328 21.82 l0 -1.82 l-1.26 0 l0 -2.52 l2.52 0 l0 2.52 l-0.7 1.82 l-0.56 0 z M302.73699999999997 20 l1.14 -5.6 l4.28 0 l-0.86 -4.28 l-0.68 3.44 l-2.58 0 l1.52 -7.56 l3.48 0 l2.2 10.92 l-5.3 0 l-0.62 3.08 l-2.58 0 z M309.29699999999997 20 l-0.46 -2.24 l2.58 0 l0.44 2.24 l-2.56 0 z M317.99150000000003 20 l-1.86 -1.86 l0 -10.28 l1.86 -1.86 l1.78 0 l0 2.52 l-0.74 0 l-0.38 0.38 l0 8.2 l0.38 0.38 l0.74 0 l0 2.52 l-1.78 0 z M320.6115 20 l0 -2.52 l0.74 0 l0.38 -0.38 l0 -1.58 l2.52 0 l0 2.62 l-1.86 1.86 l-1.78 0 z M321.7315 10.48 l0 -1.58 l-0.38 -0.38 l-0.74 0 l0 -2.52 l1.78 0 l1.86 1.86 l0 2.62 l-2.52 0 z M330.78600000000006 20 l-1.86 -1.86 l0 -10.28 l1.86 -1.86 l1.78 0 l0 2.52 l-0.74 0 l-0.38 0.38 l0 8.2 l0.38 0.38 l0.74 0 l0 2.52 l-1.78 0 z M333.406 20 l0 -2.52 l0.74 0 l0.38 -0.38 l0 -1.58 l2.52 0 l0 2.62 l-1.86 1.86 l-1.78 0 z M334.526 10.48 l0 -1.58 l-0.38 -0.38 l-0.74 0 l0 -2.52 l1.78 0 l1.86 1.86 l0 2.62 l-2.52 0 z M341.7205000000001 14.26 l0 -8.26 l2.52 0 l0 8.26 l-2.52 0 z M341.7205000000001 20 l0 -4.9 l2.52 0 l0 4.9 l-2.52 0 z M345.0805000000001 20 l0 -2.52 l3.5 0 l0 2.52 l-3.5 0 z M345.0805000000001 14.26 l0 -2.52 l2.38 0 l0 2.52 l-2.38 0 z M345.0805000000001 8.52 l0 -2.52 l3.5 0 l0 2.52 l-3.5 0 z M353.25500000000005 16.64 l0 -10.64 l2.52 0 l0 10.64 l-2.52 0 z M353.25500000000005 20 l0 -2.52 l2.52 0 l0 2.52 l-2.52 0 z M356.61500000000007 20 l0 -2.52 l3.08 0 l0 2.52 l-3.08 0 z M364.3695000000001 14.26 l0 -8.26 l2.52 0 l0 8.26 l-2.52 0 z M364.3695000000001 20 l0 -4.9 l2.52 0 l0 4.9 l-2.52 0 z M367.7295000000001 20 l0 -2.52 l3.5 0 l0 2.52 l-3.5 0 z M367.7295000000001 14.26 l0 -2.52 l2.38 0 l0 2.52 l-2.38 0 z M367.7295000000001 8.52 l0 -2.52 l3.5 0 l0 2.52 l-3.5 0 z M381.60400000000004 20 l-1.36 -5.18 l-0.98 0 l0 -2.52 l1.58 0 l0.38 -0.38 l0 -3.02 l-0.38 -0.38 l-1.58 0 l0 -2.52 l2.62 0 l1.86 1.86 l0 5.1 l-1.08 1.1 l1.54 5.94 l-2.6 0 z M375.90400000000005 20 l0 -4.34 l2.52 0 l0 4.34 l-2.52 0 z M375.90400000000005 14.82 l0 -8.82 l2.52 0 l0 8.82 l-2.52 0 z M388.2785 20 l1.14 -5.6 l4.28 0 l-0.86 -4.28 l-0.68 3.44 l-2.58 0 l1.52 -7.56 l3.48 0 l2.2 10.92 l-5.3 0 l-0.62 3.08 l-2.58 0 z M394.8385 20 l-0.46 -2.24 l2.58 0 l0.44 2.24 l-2.56 0 z M404.333 20 l0 -10.64 l2.52 0 l0 10.64 l-2.52 0 z M401.67300000000006 8.52 l0 -2.52 l7.84 0 l0 2.52 l-7.84 0 z M414.18750000000006 14.26 l0 -8.26 l2.52 0 l0 8.26 l-2.52 0 z M414.18750000000006 20 l0 -4.9 l2.52 0 l0 4.9 l-2.52 0 z M417.54750000000007 20 l0 -2.52 l3.5 0 l0 2.52 l-3.5 0 z M417.54750000000007 14.26 l0 -2.52 l2.38 0 l0 2.52 l-2.38 0 z M417.54750000000007 8.52 l0 -2.52 l3.5 0 l0 2.52 l-3.5 0 z M435.3765 20 l0 -5.2 l-3.18 -8.8 l2.68 0 l3.02 8.36 l0 5.64 l-2.52 0 z M438.41650000000004 13.32 l-1.34 -3.7 l1.3 -3.62 l2.68 0 z M449.8910000000001 20 l0 -2.52 l0.8 0 l0.38 -0.38 l0 -8.2 l-0.38 -0.38 l-0.8 0 l0 -2.52 l1.84 0 l1.86 1.86 l0 10.28 l-1.86 1.86 l-1.84 0 z M447.1910000000001 20 l-1.86 -1.86 l0 -10.28 l1.86 -1.86 l1.84 0 l0 2.52 l-0.8 0 l-0.38 0.38 l0 8.2 l0.38 0.38 l0.8 0 l0 2.52 l-1.84 0 z M462.74550000000005 20 l0 -2.52 l0.74 0 l0.38 -0.38 l0 -11.1 l2.52 0 l0 12.14 l-1.86 1.86 l-1.78 0 z M460.1255000000001 20 l-1.86 -1.86 l0 -12.14 l2.52 0 l0 11.1 l0.38 0.38 l0.74 0 l0 2.52 l-1.78 0 z M476.7600000000001 20 l-1.36 -5.18 l-0.98 0 l0 -2.52 l1.58 0 l0.38 -0.38 l0 -3.02 l-0.38 -0.38 l-1.58 0 l0 -2.52 l2.62 0 l1.86 1.86 l0 5.1 l-1.08 1.1 l1.54 5.94 l-2.6 0 z M471.0600000000001 20 l0 -4.34 l2.52 0 l0 4.34 l-2.52 0 z M471.0600000000001 14.82 l0 -8.82 l2.52 0 l0 8.82 l-2.52 0 z M494.06900000000013 20 l0 -2.52 l1.44 0 l0.38 -0.38 l0 -2.04 l-0.8 -0.8 l-1.02 0 l0 -2.52 l1.02 0 l0.8 -0.8 l0 -2.04 l-0.38 -0.38 l-1.44 0 l0 -2.52 l2.48 0 l1.86 1.86 l0 4.12 l-1.02 1.02 l1.02 1.02 l0 4.12 l-1.86 1.86 l-2.48 0 z M490.7090000000001 20 l0 -4.9 l2.52 0 l0 4.9 l-2.52 0 z M490.7090000000001 14.26 l0 -8.26 l2.52 0 l0 8.26 l-2.52 0 z M507.5635000000001 20 l0 -2.52 l0.74 0 l0.38 -0.38 l0 -11.1 l2.52 0 l0 12.14 l-1.86 1.86 l-1.78 0 z M504.94350000000014 20 l-1.86 -1.86 l0 -12.14 l2.52 0 l0 11.1 l0.38 0.38 l0.74 0 l0 2.52 l-1.78 0 z M517.738 14.26 l-1.86 -1.86 l0 -4.54 l1.86 -1.86 l1.64 0 l0 2.52 l-0.6 0 l-0.38 0.38 l0 2.46 l0.38 0.38 l3.08 0 l1.86 1.86 l0 0.66 l-5.98 0 z M517.738 20 l-1.86 -1.86 l0 -2.62 l2.52 0 l0 1.58 l0.38 0.38 l2.04 0 l0.38 -0.38 l0 -2 l2.52 0 l0 3.04 l-1.86 1.86 l-4.12 0 z M521.1980000000001 10.48 l0 -1.58 l-0.38 -0.38 l-0.6 0 l0 -2.52 l1.64 0 l1.86 1.86 l0 2.62 l-2.52 0 z M528.3925 12.58 l0 -6.58 l2.52 0 l0 6.58 l-2.52 0 z M528.3925 20 l0 -6.58 l2.52 0 l0 6.58 l-2.52 0 z M541.067 20 l-5.48 -14 l2.72 0 l2.92 7.48 l0 -7.48 l2.52 0 l0 14 l-2.68 0 z M535.6270000000001 20 l0 -11.6 l2.52 6.42 l0 5.18 l-2.52 0 z M548.4215 14.26 l0 -8.26 l2.52 0 l0 8.26 l-2.52 0 z M548.4215 20 l0 -4.9 l2.52 0 l0 4.9 l-2.52 0 z M551.7815 20 l0 -2.52 l3.5 0 l0 2.52 l-3.5 0 z M551.7815 14.26 l0 -2.52 l2.38 0 l0 2.52 l-2.38 0 z M551.7815 8.52 l0 -2.52 l3.5 0 l0 2.52 l-3.5 0 z M561.816 14.26 l-1.86 -1.86 l0 -4.54 l1.86 -1.86 l1.64 0 l0 2.52 l-0.6 0 l-0.38 0.38 l0 2.46 l0.38 0.38 l3.08 0 l1.86 1.86 l0 0.66 l-5.98 0 z M561.816 20 l-1.86 -1.86 l0 -2.62 l2.52 0 l0 1.58 l0.38 0.38 l2.04 0 l0.38 -0.38 l0 -2 l2.52 0 l0 3.04 l-1.86 1.86 l-4.12 0 z M565.2760000000001 10.48 l0 -1.58 l-0.38 -0.38 l-0.6 0 l0 -2.52 l1.64 0 l1.86 1.86 l0 2.62 l-2.52 0 z M574.3305 14.26 l-1.86 -1.86 l0 -4.54 l1.86 -1.86 l1.64 0 l0 2.52 l-0.6 0 l-0.38 0.38 l0 2.46 l0.38 0.38 l3.08 0 l1.86 1.86 l0 0.66 l-5.98 0 z M574.3305 20 l-1.86 -1.86 l0 -2.62 l2.52 0 l0 1.58 l0.38 0.38 l2.04 0 l0.38 -0.38 l0 -2 l2.52 0 l0 3.04 l-1.86 1.86 l-4.12 0 z M577.7905000000001 10.48 l0 -1.58 l-0.38 -0.38 l-0.6 0 l0 -2.52 l1.64 0 l1.86 1.86 l0 2.62 l-2.52 0 z"></path></g><g id="SvgjsG2010" featureKey="nameLeftFeature-0" transform="matrix(1.7677970874401812,0,0,1.7677970874401812,164.9999957852433,72.83708436011204)" fill="#1e90ff"><path d="M28.36 38.36 c0.28 0.56 1.04 0.8 1.8 0.8 l0 1.04 l-7.72 0 l0 -1.04 c0.8 0 1.08 -0.28 0.96 -0.92 l-2.96 -8.08 l-11.88 0 l-3.12 8.2 c-0.08 0.56 0.2 0.8 0.96 0.8 l0 1.04 l-6.4 0 l0 -1.04 c0.72 0 1.48 -0.2 1.8 -0.72 l0.12 -0.32 l0 -0.08 l0 0.04 l10 -25.28 l6 -1.96 l10.32 27.28 l0 -0.08 l0 0.08 z M8.96 28.240000000000002 l10.96 0 l-5.28 -14.36 z M57.480000000000004 11.600000000000001 l0 1.04 c-0.92 0 -1.76 0.32 -1.72 1.12 l0 16.32 c0 4.4 -2.08 10.68 -11.04 10.68 c-9.28 0 -11.64 -6.28 -11.64 -10 l0 -17 c0.04 -0.8 -0.8 -1.12 -1.72 -1.12 l0 -1.04 l8.24 0 l0 1.04 c-0.92 0 -1.76 0.32 -1.72 1.12 l0 16.64 c0 3.52 1.28 7.56 6.84 7.56 s6.4 -4.04 6.4 -7.36 l0 -16.84 c0.04 -0.8 -0.8 -1.12 -1.72 -1.12 l0 -1.04 l8.08 0 z M59.08 11.64 l21.64 0 l0 5.48 l-1.36 0 c-0.08 -0.8 -0.92 -2.72 -2.92 -2.72 l-4.24 0 l0 23.64 c-0.04 0.8 0.8 1.12 1.72 1.12 l0 1.04 l-8.16 0 l0 -1.04 c0.92 0 1.76 -0.32 1.72 -1.12 l0 -23.64 l-4.12 0 c-2 0 -2.84 1.92 -2.92 2.72 l-1.36 0 l0 -5.48 z M96.28 41.04 c-8.16 0 -13.96 -6.8 -13.96 -15.16 c0 -7.96 5.8 -14.76 13.96 -14.76 c8.12 0 13.92 6.8 13.92 14.76 c0 8.36 -5.8 15.16 -13.92 15.16 z M96.44 38.84 c5.44 0 8.6 -6.16 8.6 -12.96 c0 -6.36 -3.16 -12.52 -8.6 -12.52 s-8.6 6.16 -8.6 12.52 c0 6.8 3.16 12.96 8.6 12.96 z"></path></g><g id="SvgjsG2011" featureKey="inlineSymbolFeature-0" transform="matrix(0.5799166703060792,0,0,0.5799166703060792,364.42008360621975,89.42008332969392)" fill="#000000"><path xmlns="http://www.w3.org/2000/svg" d="M50.3,99l-2.6,0V69c0-1.3,1-2.3,2.3-2.3c1.3,0,2.3,1,2.3,2.3V99L50.3,99z M87.9,18.5l-3.2-3.2L81.4,12  c-1.2-1.1-3.1-1.3-4.5-0.3l-7.5,5.4c-3.1-1.8-6.4-3.2-9.9-4.1L58,3.9c-0.3-1.7-1.8-2.9-3.4-2.9L50,1l-4.6,0c-1.7,0-3.2,1.2-3.4,2.9  L40.4,13c-3.5,0.9-6.9,2.3-10.1,4.2L22.9,12c-1.4-1-3.3-0.8-4.5,0.4l-3.2,3.2l-3.2,3.2c-1.2,1.2-1.4,3.1-0.4,4.5l5.4,7.6  c-1.8,3.1-3.1,6.5-4,9.9l-9.1,1.4c-1.7,0.3-2.9,1.8-2.9,3.4l0,4.6l0,4.6c0,1.7,1.2,3.2,2.9,3.4l9.2,1.5c0.9,3.4,2.3,6.7,4.2,9.8  l-5.3,7.5c-1,1.4-0.8,3.3,0.4,4.5l3.2,3.2l3.2,3.2c1.2,1.2,3.1,1.4,4.5,0.4l7.6-5.4c0.7,0.4,1.4,0.8,2.2,1.2  c0.2,0.1,0.4,0.2,0.6,0.3c0.6,0.3,1.2,0.6,1.8,0.8c0.1,0.1,0.3,0.1,0.4,0.2c0.8,0.3,1.5,0.6,2.3,0.8c0,0,0,0,0.1,0  c0.8,0.3,1.6,0.5,2.3,0.7c0.5,0.1,1,0.2,1.5,0.3V70.7c0-3-1.3-5.8-3.6-7.7c-3.8-3.3-6.2-8.2-6.2-13.7c0-6.6,3.5-12.4,8.8-15.6  c0.4-0.2,0.9,0.1,0.9,0.5v10.4c0,3.1,2.5,5.6,5.6,5.6h4.7c3.1,0,5.6-2.5,5.6-5.6V33.7c0-0.4,0.5-0.7,0.8-0.5c5.9,3,9.9,9.1,9.9,16.1  c0,5.7-2.7,10.8-6.8,14.2c-2.5,2-4,4.9-4,8.1v15.8c0.6-0.1,1.3-0.3,1.9-0.5c0.7-0.2,1.5-0.4,2.2-0.7c0.2-0.1,0.4-0.1,0.6-0.2  c0.5-0.2,1-0.4,1.4-0.5c0.4-0.1,0.7-0.3,1.1-0.5c0.2-0.1,0.5-0.2,0.7-0.3c0.5-0.2,1-0.5,1.5-0.7v0c0.7-0.3,1.3-0.7,2-1.1l7.5,5.4  c1.4,1,3.3,0.8,4.5-0.4l3.2-3.2l3.2-3.2c1.2-1.2,1.4-3.1,0.4-4.5L83,69.4c1.8-3.1,3.2-6.4,4.1-9.9l9.1-1.6c1.7-0.3,2.9-1.8,2.9-3.4  l0-4.6l0-4.6c0-1.7-1.2-3.2-2.9-3.4L87,40.4c-0.9-3.4-2.3-6.7-4.1-9.9l5.4-7.5C89.3,21.6,89.1,19.7,87.9,18.5z"></path></g><g id="SvgjsG2012" featureKey="nameRightFeature-0" transform="matrix(1.5968828380389735,0,0,1.5968828380389735,428,76.90128424194992)" fill="#1e90ff"><path d="M0 11.96 l22.84 0 c4.28 0 7.76 3.48 7.76 7.8 c0 4.28 -3.48 7.8 -7.76 7.8 l-19.72 -0.04 l0 9.36 l3.12 0 l0 -6.24 l3.08 0 l0 9.36 l-9.32 0 l0 -15.6 l22.84 0.04 c2.56 0 4.64 -2.12 4.64 -4.68 c0 -2.6 -2.08 -4.68 -4.64 -4.68 l-19.72 0 l0 3.12 l19.72 0 c0.8 0.04 1.48 0.72 1.48 1.56 s-0.64 1.52 -1.56 1.56 l-0.04 0 l-22.72 0 l0 -9.36 z M57.28 27.560000000000002 c-15.88 0 -16.12 -0.04 -16.32 -0.04 l-0.08 0 c-4 -0.32 -7.08 -3.72 -7.08 -7.76 c0 -4.32 3.48 -7.8 7.8 -7.8 l16.8 0 c3.36 0 6.08 2.72 6.08 6.12 l0 3.24 l-22.76 0 l-0.04 0 l-0.04 0 c-0.92 -0.04 -1.52 -0.72 -1.52 -1.56 s0.64 -1.52 1.48 -1.56 l19.76 0 l0 -0.08 c0 -1.72 -1.32 -3.04 -3.04 -3.04 l-16.72 0 c-2.56 0 -4.68 2.08 -4.68 4.68 c0 2.4 1.8 4.32 4.08 4.64 c15.96 0 16.12 0.04 16.4 0.04 c4 0.32 7.08 3.76 7.08 7.76 c0 4.32 -3.48 7.8 -7.76 7.8 l-16.84 0 c-3.36 0 -6.08 -2.72 -6.08 -6.08 l0 -3.28 l22.92 0 c1.96 0.12 1.96 3 0 3.12 l-19.8 0 l0 0.08 c0 1.72 1.32 3.04 3.04 3.04 l16.76 0 c2.52 0 4.68 -2 4.68 -4.68 c0 -2.4 -1.8 -4.32 -4.12 -4.64 z"></path></g>
			</g>
		</svg>
	